REM DIRINDEX 1\2,1\3
REM DIRNAME folder01,folder02,folder03
TITLE ""
FILE "2201-2220.mp3" MP3
  TRACK 01 AUDIO
    TITLE "0:"
    INDEX 01 00:00:00
  TRACK 02 AUDIO
    TITLE "2:cjc039_3401"
    INDEX 01 00:00:23
  TRACK 03 AUDIO
    TITLE "0:"
    INDEX 01 00:01:38
  TRACK 04 AUDIO
    TITLE "3:cjc039_3402"
    INDEX 01 00:02:18
  TRACK 05 AUDIO
    TITLE "0:"
    INDEX 01 00:06:10
  TRACK 06 AUDIO
    TITLE "2:cjc039_3403"
    INDEX 01 00:07:62
  TRACK 07 AUDIO
    TITLE "0:"
    INDEX 01 00:09:22
  TRACK 08 AUDIO
    TITLE "3:cjc039_3404"
    INDEX 01 00:09:71
  TRACK 09 AUDIO
    TITLE "0:"
    INDEX 01 00:13:67
  TRACK 10 AUDIO
    TITLE "2:cjc039_3405"
    INDEX 01 00:15:42
  TRACK 11 AUDIO
    TITLE "0:"
    INDEX 01 00:16:53
  TRACK 12 AUDIO
    TITLE "3:cjc039_3406"
    INDEX 01 00:17:27
  TRACK 13 AUDIO
    TITLE "0:"
    INDEX 01 00:22:19
  TRACK 14 AUDIO
    TITLE "2:cjc039_3407"
    INDEX 01 00:23:71
  TRACK 15 AUDIO
    TITLE "0:"
    INDEX 01 00:25:41
  TRACK 16 AUDIO
    TITLE "3:cjc039_3408"
    INDEX 01 00:26:17
  TRACK 17 AUDIO
    TITLE "0:"
    INDEX 01 00:30:01
  TRACK 18 AUDIO
    TITLE "2:cjc039_3409"
    INDEX 01 00:31:49
  TRACK 19 AUDIO
    TITLE "0:"
    INDEX 01 00:32:50
  TRACK 20 AUDIO
    TITLE "3:cjc039_3410"
    INDEX 01 00:33:24
  TRACK 21 AUDIO
    TITLE "0:"
    INDEX 01 00:37:32
  TRACK 22 AUDIO
    TITLE "2:cjc039_3411"
    INDEX 01 00:39:11
  TRACK 23 AUDIO
    TITLE "0:"
    INDEX 01 00:40:40
  TRACK 24 AUDIO
    TITLE "3:cjc039_3412"
    INDEX 01 00:41:16
  TRACK 25 AUDIO
    TITLE "0:"
    INDEX 01 00:45:35
  TRACK 26 AUDIO
    TITLE "2:cjc039_3413"
    INDEX 01 00:47:07
  TRACK 27 AUDIO
    TITLE "0:"
    INDEX 01 00:48:04
  TRACK 28 AUDIO
    TITLE "3:cjc039_3414"
    INDEX 01 00:48:57
  TRACK 29 AUDIO
    TITLE "0:"
    INDEX 01 00:52:53
  TRACK 30 AUDIO
    TITLE "2:cjc039_3415"
    INDEX 01 00:54:30
  TRACK 31 AUDIO
    TITLE "0:"
    INDEX 01 00:55:46
  TRACK 32 AUDIO
    TITLE "3:cjc039_3416"
    INDEX 01 00:56:20
  TRACK 33 AUDIO
    TITLE "0:"
    INDEX 01 01:00:13
  TRACK 34 AUDIO
    TITLE "2:cjc039_3417"
    INDEX 01 01:01:60
  TRACK 35 AUDIO
    TITLE "0:"
    INDEX 01 01:02:71
  TRACK 36 AUDIO
    TITLE "3:cjc039_3418"
    INDEX 01 01:03:49
  TRACK 37 AUDIO
    TITLE "0:"
    INDEX 01 01:07:49
  TRACK 38 AUDIO
    TITLE "2:cjc039_3419"
    INDEX 01 01:09:20
  TRACK 39 AUDIO
    TITLE "0:"
    INDEX 01 01:10:33
  TRACK 40 AUDIO
    TITLE "3:cjc039_3420"
    INDEX 01 01:11:03
  TRACK 41 AUDIO
    TITLE "0:"
    INDEX 01 01:15:19
  TRACK 42 AUDIO
    TITLE "2:cjc039_3421"
    INDEX 01 01:16:69
  TRACK 43 AUDIO
    TITLE "0:"
    INDEX 01 01:17:61
  TRACK 44 AUDIO
    TITLE "3:cjc039_3422"
    INDEX 01 01:18:41
  TRACK 45 AUDIO
    TITLE "0:"
    INDEX 01 01:21:65
  TRACK 46 AUDIO
    TITLE "2:cjc039_3423"
    INDEX 01 01:23:42
  TRACK 47 AUDIO
    TITLE "0:"
    INDEX 01 01:24:61
  TRACK 48 AUDIO
    TITLE "3:cjc039_3424"
    INDEX 01 01:25:39
  TRACK 49 AUDIO
    TITLE "0:"
    INDEX 01 01:29:56
  TRACK 50 AUDIO
    TITLE "2:cjc039_3425"
    INDEX 01 01:31:30
  TRACK 51 AUDIO
    TITLE "0:"
    INDEX 01 01:32:31
  TRACK 52 AUDIO
    TITLE "3:cjc039_3426"
    INDEX 01 01:33:07
  TRACK 53 AUDIO
    TITLE "0:"
    INDEX 01 01:36:01
  TRACK 54 AUDIO
    TITLE "2:cjc039_3427"
    INDEX 01 01:37:48
  TRACK 55 AUDIO
    TITLE "0:"
    INDEX 01 01:39:14
  TRACK 56 AUDIO
    TITLE "3:cjc039_3428"
    INDEX 01 01:39:64
  TRACK 57 AUDIO
    TITLE "0:"
    INDEX 01 01:44:32
  TRACK 58 AUDIO
    TITLE "2:cjc039_3429"
    INDEX 01 01:46:06
  TRACK 59 AUDIO
    TITLE "0:"
    INDEX 01 01:46:74
  TRACK 60 AUDIO
    TITLE "3:cjc039_3430"
    INDEX 01 01:47:52
  TRACK 61 AUDIO
    TITLE "0:"
    INDEX 01 01:50:25
  TRACK 62 AUDIO
    TITLE "2:cjc039_3431"
    INDEX 01 01:52:06
  TRACK 63 AUDIO
    TITLE "0:"
    INDEX 01 01:53:53
  TRACK 64 AUDIO
    TITLE "3:cjc039_3432"
    INDEX 01 01:54:33
  TRACK 65 AUDIO
    TITLE "0:"
    INDEX 01 01:58:32
  TRACK 66 AUDIO
    TITLE "2:cjc039_3433"
    INDEX 01 02:00:12
  TRACK 67 AUDIO
    TITLE "0:"
    INDEX 01 02:01:31
  TRACK 68 AUDIO
    TITLE "3:cjc039_3434"
    INDEX 01 02:02:07
  TRACK 69 AUDIO
    TITLE "0:"
    INDEX 01 02:06:22
  TRACK 70 AUDIO
    TITLE "2:cjc039_3435"
    INDEX 01 02:08:00
  TRACK 71 AUDIO
    TITLE "0:"
    INDEX 01 02:09:26
  TRACK 72 AUDIO
    TITLE "3:cjc039_3436"
    INDEX 01 02:10:06
  TRACK 73 AUDIO
    TITLE "0:"
    INDEX 01 02:14:37
  TRACK 74 AUDIO
    TITLE "2:cjc039_3437"
    INDEX 01 02:16:17
  TRACK 75 AUDIO
    TITLE "0:"
    INDEX 01 02:17:32
  TRACK 76 AUDIO
    TITLE "3:cjc039_3438"
    INDEX 01 02:18:16
  TRACK 77 AUDIO
    TITLE "0:"
    INDEX 01 02:22:25
  TRACK 78 AUDIO
    TITLE "2:cjc039_3439"
    INDEX 01 02:24:06
  TRACK 79 AUDIO
    TITLE "0:"
    INDEX 01 02:25:21
  TRACK 80 AUDIO
    TITLE "3:cjc039_3440"
    INDEX 01 02:26:01
  TRACK 81 AUDIO
    TITLE "0:"
    INDEX 01 02:29:57
